<svg width="60" height="60" viewBox="0 0 60 60" fill="none" xmlns="http://www.w3.org/2000/svg">
<path d="M59.5 30C59.5 13.7076 46.2924 0.5 30 0.5C13.7076 0.5 0.5 13.7076 0.5 30C0.5 46.2924 13.7076 59.5 30 59.5C46.2924 59.5 59.5 46.2924 59.5 30Z" stroke="#1568E4"/>
<path d="M34.4465 22.064C35.3191 22.064 36.156 21.7174 36.773 21.1004C37.39 20.4834 37.7367 19.6465 37.7367 18.7739C37.7367 17.9013 37.39 17.0645 36.773 16.4475C36.156 15.8305 35.3191 15.4838 34.4465 15.4838C33.574 15.4838 32.7371 15.8305 32.1201 16.4475C31.5031 17.0645 31.1564 17.9013 31.1564 18.7739C31.1564 19.6465 31.5031 20.4834 32.1201 21.1004C32.7371 21.7174 33.574 22.064 34.4465 22.064ZM27.8371 25.1948C26.9254 25.4214 26.3032 25.7621 25.8009 26.1847C25.0478 26.8193 24.4395 27.7347 23.6177 29.1736C23.4253 29.5103 23.1069 29.7568 22.7327 29.8588C22.3586 29.9608 21.9592 29.91 21.6225 29.7176C21.2857 29.5251 21.0393 29.2068 20.9372 28.8326C20.8352 28.4584 20.886 28.059 21.0785 27.7223C21.8966 26.2915 22.7235 24.9527 23.9175 23.9482C25.1633 22.8983 26.6885 22.3046 28.7452 22.0757C29.605 21.9807 30.5511 21.9997 31.4379 22.3952C32.3687 22.8113 33.0486 23.5563 33.5122 24.5521C34.1365 25.8923 34.6008 26.6899 34.9722 27.152C35.1514 27.3743 35.2764 27.4774 35.3473 27.5234C35.4036 27.56 35.4277 27.5629 35.4365 27.5644H35.4372C35.5008 27.5717 35.707 27.5644 36.3124 27.296C36.5763 27.1791 36.8644 27.0387 37.2168 26.8669L37.3009 26.8259C37.7319 26.6132 38.1667 26.4085 38.6052 26.2118C38.9593 26.0563 39.3604 26.0475 39.721 26.1871C40.0815 26.3266 40.3721 26.6033 40.5292 26.9566C40.6863 27.3099 40.697 27.711 40.5591 28.0722C40.4212 28.4334 40.1459 28.7253 39.7933 28.8841C39.387 29.0664 38.9841 29.2563 38.5848 29.4536L38.489 29.5004C38.1519 29.6649 37.8127 29.8309 37.4946 29.9713C36.8366 30.2622 35.9958 30.5781 35.0841 30.4677C34.1219 30.3507 33.3806 29.8075 32.7701 29.0785L30.7719 32.9338L33.5356 36.5295C33.7001 36.7445 33.8017 37.0004 33.8302 37.2694L34.4385 43.1156C34.4617 43.3082 34.4463 43.5035 34.3933 43.6901C34.3402 43.8767 34.2506 44.0509 34.1295 44.2025C34.0085 44.3541 33.8585 44.4802 33.6883 44.5732C33.5181 44.6663 33.331 44.7246 33.1381 44.7447C32.9451 44.7648 32.7501 44.7463 32.5644 44.6902C32.3786 44.6342 32.2059 44.5417 32.0562 44.4183C31.9066 44.2948 31.783 44.1429 31.6926 43.9712C31.6023 43.7995 31.547 43.6115 31.5301 43.4183L30.9642 37.9838L29.2855 35.7991L29.2708 35.8262L29.2094 35.7004L26.108 31.6646C25.9555 31.4662 25.8565 31.232 25.8204 30.9845C25.7843 30.7369 25.8123 30.4842 25.9018 30.2505L27.8371 25.1948Z" fill="#1568E4"/>
<path d="M25.6233 33.7673L24.547 36.6626L20.3065 36.3263C20.1137 36.3084 19.9192 36.329 19.7344 36.3868C19.5497 36.4446 19.3782 36.5386 19.23 36.6632C19.0818 36.7879 18.9599 36.9407 18.8712 37.1129C18.7826 37.285 18.729 37.473 18.7136 37.666C18.6982 37.8591 18.7213 38.0532 18.7816 38.2372C18.8418 38.4213 18.938 38.5915 19.0645 38.738C19.1911 38.8846 19.3455 39.0045 19.5188 39.0909C19.692 39.1773 19.8808 39.2285 20.074 39.2413L25.4171 39.6654C25.7342 39.6906 26.0509 39.6118 26.3191 39.4408C26.5874 39.2698 26.7925 39.016 26.9035 38.7178L27.726 36.504L25.6233 33.7673Z" fill="#1568E4"/>
</svg>
